<?xml version="1.0" standalone="no"?>
<!DOCTYPE svg PUBLIC "-//W3C//DTD SVG 20010904//EN"
 "http://www.w3.org/TR/2001/REC-SVG-20010904/DTD/svg10.dtd">
<svg version="1.0" xmlns="http://www.w3.org/2000/svg"
 width="1000.000000pt" height="1000.000000pt" viewBox="0 0 1000.000000 1000.000000"
 preserveAspectRatio="xMidYMid meet">
<metadata>
Created by potrace 1.14, written by Peter Selinger 2001-2017
</metadata>
<g transform="translate(0.000000,1000.000000) scale(0.100000,-0.100000)"
fill="#000000" stroke="none">
<path d="M4778 9985 c-2 -1 -56 -6 -120 -9 -65 -4 -126 -9 -135 -10 -10 -2
-49 -7 -88 -11 -66 -6 -105 -11 -165 -20 -125 -20 -167 -27 -250 -44 -52 -11
-106 -22 -120 -25 -87 -15 -474 -125 -501 -141 -5 -4 -17 -8 -26 -10 -103 -21
-537 -213 -763 -336 -320 -174 -682 -431 -950 -673 -80 -72 -343 -339 -400
-405 -30 -35 -60 -69 -65 -75 -74 -80 -281 -359 -381 -511 -153 -236 -324
-559 -424 -805 -23 -58 -48 -118 -55 -135 -66 -155 -184 -568 -230 -800 -8
-44 -25 -135 -31 -175 -17 -110 -24 -160 -29 -205 -3 -27 -7 -63 -10 -80 -20
-153 -28 -750 -12 -915 4 -41 10 -97 13 -125 5 -54 23 -195 29 -235 3 -14 7
-42 10 -64 4 -21 9 -48 11 -60 2 -11 7 -34 10 -51 107 -594 349 -1208 689
-1744 131 -208 313 -450 471 -631 73 -83 359 -367 449 -447 531 -466 1167
-820 1850 -1030 44 -13 87 -26 95 -28 8 -1 35 -8 60 -15 25 -7 52 -14 60 -15
8 -2 51 -13 95 -24 44 -11 121 -27 170 -36 50 -10 99 -19 110 -21 52 -10 187
-30 265 -38 30 -4 73 -8 95 -11 230 -26 843 -27 995 -1 14 3 50 7 80 10 78 8
132 15 235 33 50 8 104 17 120 20 270 43 751 190 1040 318 33 15 80 36 105 47
78 34 320 158 419 216 201 115 534 347 686 477 17 14 52 44 80 68 81 69 183
165 290 273 84 85 125 128 230 248 6 6 33 38 60 71 28 33 52 62 55 65 17 16
168 222 232 315 284 415 507 884 657 1380 30 100 95 359 106 425 3 19 8 42 10
50 2 8 7 29 9 45 3 17 8 41 10 55 5 23 8 47 21 133 10 76 14 105 20 162 3 33
8 74 10 90 24 189 24 750 0 940 -2 17 -7 59 -10 95 -4 36 -9 74 -11 85 -2 11
-5 36 -8 55 -2 19 -8 58 -11 85 -12 88 -74 376 -105 490 -17 61 -33 118 -35
129 -2 10 -25 82 -50 160 -211 644 -587 1287 -1047 1789 -174 189 -389 392
-553 522 -27 22 -59 48 -70 57 -39 36 -313 227 -430 300 -530 331 -1107 556
-1735 674 -14 2 -36 7 -50 9 -14 3 -45 8 -70 11 -25 3 -52 7 -60 9 -8 2 -42 7
-75 10 -33 4 -67 8 -75 10 -8 3 -58 7 -110 11 -52 3 -104 8 -115 11 -22 5
-572 13 -577 8z"/>
</g>
</svg>
